# xmcd
#
# Track frame offsets: 
#        182
#        7847
#        30482
#        49935
#        60920
#        78305
#        100567
#        119377
#        136767
#        152017
#        162367
#        186327
#        198960
#        215630
#
# Disc length: 3048 seconds
#
# Revision: 1
# Processed by: cddbd v1.5.2PL0 Copyright (c) Steve Scherf et al.
# Submitted via: ExactAudioCopyFreeDBPlugin 1.0
#
DISCID=aa0be60e
DTITLE=Clifton Chenier - Il re dello Zydeco
DYEAR=1900
DGENRE=Blues
TTITLE0=Get together
TTITLE1=No dog around
TTITLE2=Brown-eyed girl
TTITLE3=He, tit' fill'
TTITLE4=Travelin' man
TTITLE5=Shake it up
TTITLE6=Let's talk it over one more time
TTITLE7=I'm goin' home
TTITLE8=J'ai passè devant ta porte
TTITLE9=Clifton's Boogie
TTITLE10=I have to go
TTITLE11=In the woods
TTITLE12=Four in the mornin'
TTITLE13=Walkin' on the highway
EXTD=ID3G: 0
EXTT0=
EXTT1=
EXTT2=
EXTT3=
EXTT4=
EXTT5=
EXTT6=
EXTT7=
EXTT8=
EXTT9=
EXTT10=
EXTT11=
EXTT12=
EXTT13=
PLAYORDER=
